<svg width="41" height="41" viewBox="0 0 41 41" fill="none" xmlns="http://www.w3.org/2000/svg">
<g id="Icon" clip-path="url(#clip0_0_96)">
<path id="Vector" d="M18.8567 29.0336C18.6789 29.0336 18.5011 29.1225 18.3233 29.3002C18.1455 29.478 18.0567 29.678 18.0567 29.9002C18.0567 30.1225 18.1455 30.3002 18.3233 30.4336C18.5011 30.5669 18.6789 30.6336 18.8567 30.6336C19.0344 30.6336 19.2122 30.5669 19.39 30.4336C19.5678 30.3002 19.6567 30.1225 19.6567 29.9002C19.6567 29.678 19.5678 29.478 19.39 29.3002C19.2122 29.1225 19.0344 29.0336 18.8567 29.0336ZM32.8567 6.36691H16.99L12.0567 1.43357C11.4344 0.811352 10.7011 0.50024 9.85666 0.50024C9.01221 0.50024 8.3011 0.789131 7.72332 1.36691C7.14555 1.94469 6.85666 2.6558 6.85666 3.50024C6.85666 4.34469 7.12332 5.07802 7.65666 5.70024L8.45666 6.36691H4.85666C3.78999 6.36691 2.87888 6.76691 2.12332 7.56691C1.36777 8.36691 0.98999 9.30024 0.98999 10.3669V15.4336C0.98999 15.7002 1.05666 15.9002 1.18999 16.0336C1.32332 16.1669 1.5011 16.2336 1.72332 16.2336C1.94555 16.2336 2.14555 16.1669 2.32332 16.0336C2.5011 15.9002 2.58999 15.7002 2.58999 15.4336V10.3669C2.58999 9.6558 2.81221 9.07802 3.25666 8.63358C3.7011 8.18913 4.23443 7.96691 4.85666 7.96691H10.0567L19.9233 17.8336L19.79 18.6336C19.79 20.0558 20.2789 21.2558 21.2567 22.2336C22.1455 23.1225 23.1011 23.7447 24.1233 24.1002C25.1455 24.4558 26.4122 24.6336 27.9233 24.6336C28.6344 24.6336 29.39 24.5891 30.19 24.5002C30.5455 24.5002 30.7678 24.3447 30.8567 24.0336C30.9455 23.7225 30.9011 23.4336 30.7233 23.1669C30.2789 22.7225 30.0122 22.2336 29.9233 21.7002C29.8344 21.3447 29.8344 20.7225 29.9233 19.8336C30.0122 18.8558 30.0122 18.0558 29.9233 17.4336C29.7455 16.5447 29.3233 15.7669 28.6567 15.1002C27.99 14.4336 27.2789 13.9669 26.5233 13.7002C25.7678 13.4336 24.9455 13.3891 24.0567 13.5669L18.59 7.96691H32.8567C33.4789 7.96691 34.0344 8.18913 34.5233 8.63358C35.0122 9.07802 35.2567 9.6558 35.2567 10.3669V26.3669H2.58999V22.5002C2.58999 22.3225 2.5011 22.1447 2.32332 21.9669C2.14555 21.7891 1.94555 21.7002 1.72332 21.7002C1.5011 21.7002 1.32332 21.7891 1.18999 21.9669C1.05666 22.1447 0.98999 22.3225 0.98999 22.5002V29.4336C0.98999 30.5002 1.36777 31.4114 2.12332 32.1669C2.87888 32.9225 3.78999 33.3002 4.85666 33.3002H14.99V35.8336C13.9233 35.8336 13.0122 36.2114 12.2567 36.9669C11.5011 37.7225 11.1233 38.6336 11.1233 39.7002C11.1233 39.9669 11.19 40.1669 11.3233 40.3002C11.4567 40.4336 11.6567 40.5002 11.9233 40.5002H25.79C26.0567 40.5002 26.2567 40.4336 26.39 40.3002C26.5233 40.1669 26.59 39.9669 26.59 39.7002C26.59 38.6336 26.2122 37.7225 25.4567 36.9669C24.7011 36.2114 23.79 35.8336 22.7233 35.8336V33.3002H32.8567C33.9233 33.3002 34.8344 32.9225 35.59 32.1669C36.3455 31.4114 36.7233 30.5002 36.7233 29.4336V10.3669C36.7233 9.30024 36.3455 8.36691 35.59 7.56691C34.8344 6.76691 33.9233 6.36691 32.8567 6.36691ZM8.85666 2.50024C9.12332 2.23357 9.45666 2.10024 9.85666 2.10024C10.2567 2.10024 10.59 2.23357 10.8567 2.50024L18.7233 10.3669L16.7233 12.5002L8.85666 4.63358C8.5011 4.27802 8.32332 3.90024 8.32332 3.50024C8.32332 3.10024 8.5011 2.76691 8.85666 2.50024ZM22.4567 21.1669C22.7233 20.7225 23.0789 20.3447 23.5233 20.0336C23.9678 19.7225 24.5011 19.5225 25.1233 19.4336C26.4567 19.3447 27.5678 18.8114 28.4567 17.8336C28.4567 18.1891 28.4122 18.8114 28.3233 19.7002C28.3233 20.4114 28.3233 20.9891 28.3233 21.4336C28.3233 22.0558 28.4567 22.6336 28.7233 23.1669C27.3011 23.1669 26.0789 23.0114 25.0567 22.7002C24.0344 22.3891 23.1678 21.878 22.4567 21.1669ZM27.5233 16.1002C27.5233 16.1002 27.5678 16.1447 27.6567 16.2336C27.39 16.678 27.0122 17.0558 26.5233 17.3669C26.0344 17.678 25.5233 17.878 24.99 17.9669C23.5678 17.9669 22.4122 18.5447 21.5233 19.7002C21.4344 19.3447 21.39 18.9891 21.39 18.6336C21.39 17.6558 21.7455 16.8114 22.4567 16.1002C23.1678 15.3891 24.0122 15.0336 24.99 15.0336C25.9678 15.0336 26.8122 15.3891 27.5233 16.1002ZM21.2567 14.9002L20.19 15.9669L17.79 13.5669L19.9233 11.4336L22.3233 13.9669L21.2567 14.9002ZM24.8567 38.9002H12.8567C13.0344 38.4558 13.3233 38.1002 13.7233 37.8336C14.1233 37.5669 14.5455 37.4336 14.99 37.4336H22.7233C23.1678 37.4336 23.6122 37.5669 24.0567 37.8336C24.5011 38.1002 24.7678 38.4558 24.8567 38.9002ZM21.2567 35.8336H16.4567V33.3002H21.2567V35.8336ZM32.8567 31.7002H4.85666C4.23443 31.7002 3.7011 31.478 3.25666 31.0336C2.81221 30.5891 2.58999 30.0558 2.58999 29.4336V27.9669H35.2567V29.4336C35.2567 30.0558 35.0122 30.5891 34.5233 31.0336C34.0344 31.478 33.4789 31.7002 32.8567 31.7002ZM1.78999 19.8336C1.96777 19.8336 2.14555 19.7447 2.32332 19.5669C2.5011 19.3891 2.58999 19.1891 2.58999 18.9669C2.58999 18.7447 2.5011 18.5669 2.32332 18.4336C2.14555 18.3002 1.94555 18.2336 1.72332 18.2336C1.5011 18.2336 1.32332 18.3002 1.18999 18.4336C1.05666 18.5669 0.98999 18.7447 0.98999 18.9669C0.98999 19.1891 1.05666 19.3891 1.18999 19.5669C1.32332 19.7447 1.52332 19.8336 1.78999 19.8336Z" fill="#1E1E1E"/>
</g>
<defs>
<clipPath id="clip0_0_96">
<rect width="40.02" height="40" fill="white" transform="matrix(1 0 0 -1 0.97998 40.5002)"/>
</clipPath>
</defs>
</svg>
