<svg width="40" height="41" viewBox="0 0 40 41" fill="none" xmlns="http://www.w3.org/2000/svg">
<g id="Icon" clip-path="url(#clip0_0_105)">
<path id="Vector" d="M39.2 32.6336H38.4V13.8336C38.4 13.0336 38.1111 12.3225 37.5333 11.7002C36.9556 11.078 36.2222 10.7669 35.3333 10.7669H26.4L25.8667 9.16691H26.6667C26.8444 9.16691 27.0222 9.10024 27.2 8.96691C27.3778 8.83358 27.4667 8.63358 27.4667 8.36691V4.50024C27.4667 4.23358 27.3778 4.03358 27.2 3.90025C27.0222 3.76691 26.8444 3.70024 26.6667 3.70024H25.0667V1.30024C25.0667 1.12247 25 0.966911 24.8667 0.833576C24.7333 0.700245 24.5333 0.633579 24.2667 0.633579H15.7333C15.4667 0.633579 15.2667 0.700245 15.1333 0.833576C15 0.966911 14.9333 1.12247 14.9333 1.30024V3.70024H13.3333C13.1556 3.70024 12.9778 3.76691 12.8 3.90025C12.6222 4.03358 12.5333 4.23358 12.5333 4.50024V8.36691C12.5333 8.63358 12.6222 8.83358 12.8 8.96691C12.9778 9.10024 13.1556 9.16691 13.3333 9.16691H14.1333L13.6 10.7669H4.66667C3.77778 10.7669 3.04444 11.078 2.46667 11.7002C1.88889 12.3225 1.6 13.0336 1.6 13.8336V32.6336H0.8C0.533333 32.6336 0.333333 32.7002 0.2 32.8336C0.0666667 32.9669 0 33.1669 0 33.4336V37.3002C0 38.1891 0.311111 38.9225 0.933333 39.5002C1.55556 40.078 2.26667 40.3669 3.06667 40.3669H36.9333C37.7333 40.3669 38.4444 40.078 39.0667 39.5002C39.6889 38.9225 40 38.1891 40 37.3002V33.4336C40 33.1669 39.9333 32.9669 39.8 32.8336C39.6667 32.7002 39.4667 32.6336 39.2 32.6336ZM35.3333 12.2336C35.7778 12.2336 36.1556 12.3891 36.4667 12.7002C36.7778 13.0114 36.9333 13.3891 36.9333 13.8336V32.6336H35.3333V14.6336C35.3333 14.4558 35.2444 14.278 35.0667 14.1002C34.8889 13.9225 34.7111 13.8336 34.5333 13.8336H27.4667L26.9333 12.2336H35.3333ZM16.5333 34.2336H23.4667V35.7002H16.5333V34.2336ZM6.26667 32.6336V15.4336H11.8667L11.4667 16.7669C11.3778 17.0336 11.4222 17.2558 11.6 17.4336L18.5333 27.1669H13.2C13.0222 26.7225 12.7333 26.3447 12.3333 26.0336C11.9333 25.7225 11.4444 25.5669 10.8667 25.5669C10.2889 25.5669 9.77778 25.7891 9.33333 26.2336C8.88889 26.678 8.66667 27.2336 8.66667 27.9002C8.66667 28.5669 8.88889 29.1225 9.33333 29.5669C9.77778 30.0114 10.2889 30.2336 10.8667 30.2336C11.4444 30.2336 11.9333 30.1002 12.3333 29.8336C12.7333 29.5669 13.0222 29.2114 13.2 28.7669H26.8C26.9778 29.2114 27.2667 29.5669 27.6667 29.8336C28.0667 30.1002 28.5556 30.2336 29.1333 30.2336C29.7111 30.2336 30.2222 30.0114 30.6667 29.5669C31.1111 29.1225 31.3333 28.5669 31.3333 27.9002C31.3333 27.2336 31.1111 26.678 30.6667 26.2336C30.2222 25.7891 29.7111 25.5669 29.1333 25.5669C28.5556 25.5669 28.0667 25.7225 27.6667 26.0336C27.2667 26.3447 26.9778 26.7225 26.8 27.1669H21.4667L28.4 17.4336C28.5778 17.2558 28.6222 17.0336 28.5333 16.7669L28.1333 15.4336H33.7333V32.6336H6.26667ZM20 17.0336C19.8222 17.0336 19.6444 16.9447 19.4667 16.7669C19.2889 16.5891 19.2 16.3891 19.2 16.1669C19.2 15.9447 19.2889 15.7669 19.4667 15.6336C19.6444 15.5002 19.8222 15.4336 20 15.4336C20.1778 15.4336 20.3556 15.5002 20.5333 15.6336C20.7111 15.7669 20.8 15.9447 20.8 16.1669C20.8 16.3891 20.7111 16.5891 20.5333 16.7669C20.3556 16.9447 20.1778 17.0336 20 17.0336ZM11.7333 27.9669C11.7333 28.1447 11.6667 28.3225 11.5333 28.5002C11.4 28.678 11.2222 28.7669 11 28.7669C10.7778 28.7669 10.6 28.678 10.4667 28.5002C10.3333 28.3225 10.2667 28.1225 10.2667 27.9002C10.2667 27.678 10.3333 27.5002 10.4667 27.3669C10.6 27.2336 10.7778 27.1669 11 27.1669C11.2222 27.1669 11.4 27.2336 11.5333 27.3669C11.6667 27.5002 11.7333 27.7002 11.7333 27.9669ZM28.2667 27.9669C28.2667 27.7002 28.3333 27.5002 28.4667 27.3669C28.6 27.2336 28.7778 27.1669 29 27.1669C29.2222 27.1669 29.4 27.2336 29.5333 27.3669C29.6667 27.5002 29.7333 27.678 29.7333 27.9002C29.7333 28.1225 29.6667 28.3225 29.5333 28.5002C29.4 28.678 29.2222 28.7669 29 28.7669C28.7778 28.7669 28.6 28.678 28.4667 28.5002C28.3333 28.3225 28.2667 28.1447 28.2667 27.9669ZM16.5333 2.10024H23.4667V3.70024H16.5333V2.10024ZM14.1333 5.30024H25.8667V7.56691H14.1333V5.30024ZM24.1333 9.16691L26.9333 16.9002L20.8 25.4336V18.3669C21.2444 18.278 21.6222 18.0114 21.9333 17.5669C22.2444 17.1225 22.4 16.6336 22.4 16.1002C22.4 15.5669 22.1556 15.0558 21.6667 14.5669C21.1778 14.078 20.6222 13.8336 20 13.8336C19.3778 13.8336 18.8222 14.078 18.3333 14.5669C17.8444 15.0558 17.6 15.5669 17.6 16.1002C17.6 16.6336 17.7556 17.1225 18.0667 17.5669C18.3778 18.0114 18.7556 18.278 19.2 18.3669V25.4336L13.0667 16.9002L15.8667 9.16691H24.1333ZM3.06667 13.8336C3.06667 13.3891 3.22222 13.0114 3.53333 12.7002C3.84444 12.3891 4.22222 12.2336 4.66667 12.2336H13.0667L12.5333 13.8336H5.46667C5.28889 13.8336 5.11111 13.9225 4.93333 14.1002C4.75556 14.278 4.66667 14.4558 4.66667 14.6336V32.6336H3.06667V13.8336ZM38.4 37.3002C38.4 37.7447 38.2444 38.1225 37.9333 38.4336C37.6222 38.7447 37.2889 38.9002 36.9333 38.9002H3.06667C2.71111 38.9002 2.37778 38.7447 2.06667 38.4336C1.75556 38.1225 1.6 37.7447 1.6 37.3002V34.2336H14.9333V36.5002C14.9333 36.7669 15 36.9669 15.1333 37.1002C15.2667 37.2336 15.4667 37.3002 15.7333 37.3002H24.2667C24.5333 37.3002 24.7333 37.2336 24.8667 37.1002C25 36.9669 25.0667 36.7669 25.0667 36.5002V34.2336H38.4V37.3002Z" fill="#1E1E1E"/>
</g>
<defs>
<clipPath id="clip0_0_105">
<rect width="40.02" height="40" fill="white" transform="matrix(1 0 0 -1 -0.0100098 40.5002)"/>
</clipPath>
</defs>
</svg>
