<svg width="41" height="41" viewBox="0 0 41 41" fill="none" xmlns="http://www.w3.org/2000/svg">
<g id="Icon" clip-path="url(#clip0_0_102)">
<path id="Vector" d="M20.99 20.5002C20.9011 20.5002 20.8122 20.5002 20.7233 20.5002L4.85666 14.6336C4.5011 14.4558 4.32332 14.1891 4.32332 13.8336C4.32332 13.478 4.5011 13.2114 4.85666 13.0336L15.6567 9.03358C15.9233 8.94469 16.1455 8.96691 16.3233 9.10024C16.5011 9.23358 16.6344 9.38913 16.7233 9.56691C16.8122 9.74469 16.8122 9.94469 16.7233 10.1669C16.6344 10.3891 16.5011 10.5447 16.3233 10.6336L7.52332 13.8336L20.99 18.7669L34.4567 13.8336L25.6567 10.6336C25.4789 10.5447 25.3455 10.3891 25.2567 10.1669C25.1678 9.94469 25.1678 9.74469 25.2567 9.56691C25.3455 9.38913 25.4789 9.23358 25.6567 9.10024C25.8344 8.96691 26.0567 8.94469 26.3233 9.03358L37.1233 13.0336C37.4789 13.2114 37.6567 13.478 37.6567 13.8336C37.6567 14.1891 37.4789 14.4558 37.1233 14.6336L21.2567 20.5002H20.99ZM20.99 40.5002C20.9011 40.5002 20.8122 40.5002 20.7233 40.5002L11.79 37.1669C11.6122 37.078 11.4789 36.9447 11.39 36.7669C11.3011 36.5891 11.3011 36.3891 11.39 36.1669C11.4789 35.9447 11.6122 35.7891 11.79 35.7002C11.9678 35.6114 12.19 35.5669 12.4567 35.5669L20.99 38.7669L29.5233 35.5669C29.79 35.5669 30.0122 35.6114 30.19 35.7002C30.3678 35.7891 30.5011 35.9447 30.59 36.1669C30.6789 36.3891 30.6789 36.5891 30.59 36.7669C30.5011 36.9447 30.3678 37.078 30.19 37.1669L21.2567 40.5002H20.99ZM5.12332 30.1002C4.94555 30.1002 4.76777 30.0114 4.58999 29.8336C4.41221 29.6558 4.32332 29.478 4.32332 29.3002V13.8336C4.32332 13.5669 4.41221 13.3669 4.58999 13.2336C4.76777 13.1002 4.96777 13.0336 5.18999 13.0336C5.41221 13.0336 5.61221 13.1002 5.78999 13.2336C5.96777 13.3669 6.05666 13.5669 6.05666 13.8336V29.3002C6.05666 29.478 5.96777 29.6558 5.78999 29.8336C5.61221 30.0114 5.38999 30.1002 5.12332 30.1002ZM36.8567 30.1002C36.59 30.1002 36.3678 30.0114 36.19 29.8336C36.0122 29.6558 35.9233 29.478 35.9233 29.3002V13.8336C35.9233 13.5669 36.0122 13.3669 36.19 13.2336C36.3678 13.1002 36.5678 13.0336 36.79 13.0336C37.0122 13.0336 37.2122 13.1002 37.39 13.2336C37.5678 13.3669 37.6567 13.5669 37.6567 13.8336V29.3002C37.6567 29.478 37.5678 29.6558 37.39 29.8336C37.2122 30.0114 37.0344 30.1002 36.8567 30.1002ZM20.99 13.8336C20.7233 13.8336 20.5233 13.7447 20.39 13.5669C20.2567 13.3891 20.19 13.2114 20.19 13.0336V6.36691C20.19 6.10024 20.2567 5.87802 20.39 5.70024C20.5233 5.52246 20.7233 5.4558 20.99 5.50024C21.2567 5.54469 21.4567 5.63358 21.59 5.76691C21.7233 5.90024 21.79 6.10024 21.79 6.36691V13.0336C21.79 13.2114 21.7233 13.3891 21.59 13.5669C21.4567 13.7447 21.2567 13.8336 20.99 13.8336ZM35.9233 36.2336C35.6567 36.2336 35.4344 36.1447 35.2567 35.9669L31.2567 31.9669C31.0789 31.7891 30.99 31.5891 30.99 31.3669C30.99 31.1447 31.0789 30.9447 31.2567 30.7669C31.4344 30.5891 31.6344 30.5002 31.8567 30.5002C32.0789 30.5002 32.2789 30.5891 32.4567 30.7669L36.4567 34.7669C36.6344 34.9447 36.7233 35.1447 36.7233 35.3669C36.7233 35.5891 36.6344 35.7891 36.4567 35.9669C36.2789 36.1447 36.1011 36.2336 35.9233 36.2336ZM6.05666 36.2336C5.87888 36.2336 5.7011 36.1447 5.52332 35.9669C5.34555 35.7891 5.25666 35.5891 5.25666 35.3669C5.25666 35.1447 5.34555 34.9447 5.52332 34.7669L9.52332 30.7669C9.7011 30.5891 9.9011 30.5002 10.1233 30.5002C10.3455 30.5002 10.5455 30.5891 10.7233 30.7669C10.9011 30.9447 10.99 31.1447 10.99 31.3669C10.99 31.5891 10.9011 31.7891 10.7233 31.9669L6.72332 35.9669C6.54555 36.1447 6.32332 36.2336 6.05666 36.2336ZM20.99 40.5002C20.7233 40.5002 20.5233 40.4114 20.39 40.2336C20.2567 40.0558 20.19 39.878 20.19 39.7002V19.7002C20.19 19.4336 20.2567 19.2114 20.39 19.0336C20.5233 18.8558 20.7233 18.7669 20.99 18.7669C21.2567 18.7669 21.4567 18.8558 21.59 19.0336C21.7233 19.2114 21.79 19.4336 21.79 19.7002V39.7002C21.79 39.878 21.7233 40.0558 21.59 40.2336C21.4567 40.4114 21.2567 40.5002 20.99 40.5002ZM20.99 7.16691C20.1011 7.16691 19.3233 6.83358 18.6567 6.16691C17.99 5.50024 17.6567 4.72247 17.6567 3.83358C17.6567 2.94469 17.99 2.16691 18.6567 1.50024C19.3233 0.833576 20.1011 0.50024 20.99 0.50024C21.8789 0.50024 22.6567 0.833576 23.3233 1.50024C23.99 2.16691 24.3233 2.94469 24.3233 3.83358C24.3233 4.72247 23.99 5.50024 23.3233 6.16691C22.6567 6.83358 21.8789 7.16691 20.99 7.16691ZM20.99 2.10024C20.5455 2.10024 20.1678 2.27802 19.8567 2.63358C19.5455 2.98913 19.39 3.38913 19.39 3.83358C19.39 4.27802 19.5455 4.6558 19.8567 4.96691C20.1678 5.27802 20.5455 5.43357 20.99 5.43357C21.4344 5.43357 21.8344 5.27802 22.19 4.96691C22.5455 4.6558 22.7233 4.27802 22.7233 3.83358C22.7233 3.38913 22.5455 2.98913 22.19 2.63358C21.8344 2.27802 21.4344 2.10024 20.99 2.10024ZM37.6567 40.5002C36.7678 40.5002 35.99 40.1669 35.3233 39.5002C34.6567 38.8336 34.3233 38.0558 34.3233 37.1669C34.3233 36.278 34.6567 35.5002 35.3233 34.8336C35.99 34.1669 36.7678 33.8336 37.6567 33.8336C38.5455 33.8336 39.3233 34.1669 39.99 34.8336C40.6567 35.5002 40.99 36.278 40.99 37.1669C40.99 38.0558 40.6567 38.8336 39.99 39.5002C39.3233 40.1669 38.5455 40.5002 37.6567 40.5002ZM37.6567 35.4336C37.2122 35.4336 36.8122 35.6114 36.4567 35.9669C36.1011 36.3225 35.9455 36.7225 35.99 37.1669C36.0344 37.6114 36.2122 38.0114 36.5233 38.3669C36.8344 38.7225 37.2122 38.878 37.6567 38.8336C38.1011 38.7891 38.5011 38.6114 38.8567 38.3002C39.2122 37.9891 39.39 37.6114 39.39 37.1669C39.39 36.7225 39.2122 36.3225 38.8567 35.9669C38.5011 35.6114 38.1011 35.4336 37.6567 35.4336ZM4.32332 40.5002C3.43443 40.5002 2.65666 40.1669 1.98999 39.5002C1.32332 38.8336 0.98999 38.0558 0.98999 37.1669C0.98999 36.278 1.32332 35.5002 1.98999 34.8336C2.65666 34.1669 3.43443 33.8336 4.32332 33.8336C5.21221 33.8336 5.98999 34.1669 6.65666 34.8336C7.32332 35.5002 7.65666 36.278 7.65666 37.1669C7.65666 38.0558 7.32332 38.8336 6.65666 39.5002C5.98999 40.1669 5.21221 40.5002 4.32332 40.5002ZM4.32332 35.4336C3.87888 35.5225 3.47888 35.7225 3.12332 36.0336C2.76777 36.3447 2.61221 36.7225 2.65666 37.1669C2.7011 37.6114 2.87888 38.0114 3.18999 38.3669C3.5011 38.7225 3.87888 38.878 4.32332 38.8336C4.76777 38.7891 5.16777 38.6114 5.52332 38.3002C5.87888 37.9891 6.03443 37.6114 5.98999 37.1669C5.94555 36.7225 5.76777 36.3225 5.45666 35.9669C5.14555 35.6114 4.76777 35.4336 4.32332 35.4336Z" fill="#1E1E1E"/>
</g>
<defs>
<clipPath id="clip0_0_102">
<rect width="40.02" height="40" fill="white" transform="matrix(1 0 0 -1 0.97998 40.5002)"/>
</clipPath>
</defs>
</svg>
