<svg width="40" height="41" viewBox="0 0 40 41" fill="none" xmlns="http://www.w3.org/2000/svg">
<g id="Icon" clip-path="url(#clip0_0_99)">
<path id="Vector" d="M35.0667 24.9002C32.0444 23.3002 28.2667 22.3225 23.7333 21.9669L23.8667 20.6336C24.3111 20.5447 24.6889 20.3002 25 19.9002C25.3111 19.5002 25.4667 19.0336 25.4667 18.5002V12.2336C25.4667 11.1669 25.2 10.2114 24.6667 9.36691C24.1333 8.52246 23.4222 7.87802 22.5333 7.43357C23.4222 6.63358 23.8889 5.67802 23.9333 4.56691C23.9778 3.4558 23.6222 2.50024 22.8667 1.70024C22.1111 0.900242 21.1556 0.50024 20 0.50024C18.8444 0.50024 17.9111 0.900242 17.2 1.70024C16.4889 2.50024 16.1333 3.4558 16.1333 4.56691C16.1333 5.67802 16.5778 6.63358 17.4667 7.43357C16.5778 7.87802 15.8667 8.52246 15.3333 9.36691C14.8 10.2114 14.5333 11.1669 14.5333 12.2336V18.5002C14.5333 19.0336 14.6889 19.5002 15 19.9002C15.3111 20.3002 15.6889 20.5447 16.1333 20.6336L16.2667 21.9669C12.1778 22.3225 8.75556 23.1225 6 24.3669C2.17778 26.0558 0.177778 28.3225 0 31.1669C0.177778 33.3891 1.46667 35.2558 3.86667 36.7669C5.82222 38.0114 8.44444 38.9891 11.7333 39.7002C14.4889 40.2336 17.2222 40.5002 19.9333 40.5002C22.6444 40.5002 25.1778 40.278 27.5333 39.8336C29.8889 39.3891 32 38.7669 33.8667 37.9669C36.3556 36.9002 38.0889 35.5669 39.0667 33.9669C40.0444 32.3669 40.2 30.7447 39.5333 29.1002C38.8667 27.4558 37.3778 26.0558 35.0667 24.9002ZM16.9333 29.4336C16.9333 30.1447 17.1556 30.7002 17.6 31.1002C18.0444 31.5002 18.5778 31.7002 19.2 31.7002H20.8C21.4222 31.7002 21.9556 31.5002 22.4 31.1002C22.8444 30.7002 23.1111 30.1447 23.2 29.4336L23.3333 27.0336C25.6444 27.3002 27.4889 27.7669 28.8667 28.4336C30.2444 29.1002 30.9333 29.7891 30.9333 30.5002C30.7556 31.3002 29.9556 32.0114 28.5333 32.6336C27.3778 33.1669 25.9111 33.5669 24.1333 33.8336C22.6222 34.0114 21.2444 34.1225 20 34.1669C18.7556 34.2114 17.3778 34.1002 15.8667 33.8336C14.0889 33.5669 12.6222 33.1669 11.4667 32.6336C10.0444 32.0114 9.24444 31.3002 9.06667 30.5002C9.06667 29.7891 9.77778 29.1002 11.2 28.4336C12.6222 27.7669 14.4444 27.3002 16.6667 27.0336L16.9333 29.4336ZM17.7333 4.36691C17.7333 3.74469 17.9556 3.21135 18.4 2.76691C18.8444 2.32246 19.3778 2.10024 20 2.10024C20.9778 2.10024 21.6667 2.47802 22.0667 3.23357C22.4667 3.98913 22.4667 4.74469 22.0667 5.50024C21.6667 6.2558 20.9778 6.67802 20 6.76691C19.3778 6.76691 18.8444 6.54469 18.4 6.10024C17.9556 5.6558 17.7333 5.07802 17.7333 4.36691ZM16.1333 18.5002V12.2336C16.1333 10.9891 16.5333 10.0336 17.3333 9.36691C18.1333 8.70024 19.0444 8.36691 20.0667 8.36691C21.0889 8.36691 21.9778 8.70024 22.7333 9.36691C23.4889 10.0336 23.8667 10.9891 23.8667 12.2336V18.5002C23.8667 18.678 23.8 18.8558 23.6667 19.0336C23.5333 19.2114 23.3556 19.3002 23.1333 19.3002C22.9111 19.3002 22.7333 19.3669 22.6 19.5002C22.4667 19.6336 22.4 19.7891 22.4 19.9669L21.6 29.3002C21.6 29.5669 21.5111 29.7891 21.3333 29.9669C21.1556 30.1447 20.9778 30.2336 20.8 30.2336H19.2C19.0222 30.2336 18.8667 30.1447 18.7333 29.9669C18.6 29.7891 18.4889 29.5669 18.4 29.3002L17.7333 19.9669C17.6444 19.7891 17.5333 19.6336 17.4 19.5002C17.2667 19.3669 17.0889 19.3002 16.8667 19.3002C16.6444 19.3002 16.4667 19.2114 16.3333 19.0336C16.2 18.8558 16.1333 18.678 16.1333 18.5002ZM33.3333 36.5002C31.0222 37.5669 28.2222 38.278 24.9333 38.6336C21.6444 38.9891 18.3556 38.9891 15.0667 38.6336C11.7778 38.278 9.02222 37.5669 6.8 36.5002C5.11111 35.7891 3.82222 34.9669 2.93333 34.0336C2.04444 33.1002 1.6 32.1447 1.6 31.1669C1.77778 28.8558 3.64444 26.9891 7.2 25.5669C9.86667 24.5002 12.9333 23.7891 16.4 23.4336L16.5333 25.4336C14.1333 25.7891 12.1556 26.3447 10.6 27.1002C9.04445 27.8558 8.08889 28.7002 7.73333 29.6336C7.37778 30.5669 7.55556 31.4558 8.26667 32.3002C8.97778 33.1447 10.0444 33.8336 11.4667 34.3669C13.6889 35.2558 16.5333 35.7002 20 35.7002C23.4667 35.7002 26.3111 35.2558 28.5333 34.3669C30.0444 33.8336 31.1333 33.1447 31.8 32.3002C32.4667 31.4558 32.6444 30.5669 32.3333 29.6336C32.0222 28.7002 31.0889 27.8558 29.5333 27.1002C27.9778 26.3447 25.9556 25.7891 23.4667 25.4336L23.6 23.4336C27.9556 23.878 31.5556 24.8114 34.4 26.2336C36.3556 27.3002 37.6 28.4558 38.1333 29.7002C38.6667 30.9447 38.5111 32.1669 37.6667 33.3669C36.8222 34.5669 35.3778 35.6114 33.3333 36.5002Z" fill="#1E1E1E"/>
</g>
<defs>
<clipPath id="clip0_0_99">
<rect width="40.02" height="40" fill="white" transform="matrix(1 0 0 -1 -0.0100098 40.5002)"/>
</clipPath>
</defs>
</svg>
