<svg width="41" height="41" viewBox="0 0 41 41" fill="none" xmlns="http://www.w3.org/2000/svg">
<g id="Icon" clip-path="url(#clip0_0_93)">
<path id="Vector" d="M16.7233 28.5002C16.6344 28.5002 16.5011 28.4558 16.3233 28.3669L12.0567 24.7669C11.8789 24.5891 11.79 24.4114 11.79 24.2336C11.79 24.0558 11.8789 23.878 12.0567 23.7002L16.3233 20.1002C16.5011 20.0114 16.6789 19.9669 16.8567 19.9669C17.0344 19.9669 17.1678 20.0336 17.2567 20.1669C17.3455 20.3002 17.39 20.4558 17.39 20.6336C17.39 20.8114 17.3455 20.9447 17.2567 21.0336L13.5233 24.2336L17.2567 27.4336C17.3455 27.5225 17.39 27.6558 17.39 27.8336C17.39 28.0114 17.3455 28.1669 17.2567 28.3002C17.1678 28.4336 16.99 28.5002 16.7233 28.5002ZM25.2567 28.5002C24.99 28.5002 24.8122 28.4336 24.7233 28.3002C24.6344 28.1669 24.59 28.0114 24.59 27.8336C24.59 27.6558 24.6344 27.5225 24.7233 27.4336L28.4567 24.2336L24.7233 21.0336C24.6344 20.9447 24.59 20.8114 24.59 20.6336C24.59 20.4558 24.6344 20.3002 24.7233 20.1669C24.8122 20.0336 24.9455 19.9669 25.1233 19.9669C25.3011 19.9669 25.4789 20.0114 25.6567 20.1002L29.9233 23.7002C30.1011 23.878 30.19 24.0558 30.19 24.2336C30.19 24.4114 30.1011 24.5891 29.9233 24.7669L25.6567 28.3669C25.4789 28.4558 25.3455 28.5002 25.2567 28.5002ZM19.5233 31.3002C19.4344 31.3002 19.3455 31.278 19.2567 31.2336C19.1678 31.1891 19.0567 31.1002 18.9233 30.9669C18.79 30.8336 18.7678 30.678 18.8567 30.5002L21.5233 17.8336C21.5233 17.6558 21.6122 17.5225 21.79 17.4336C21.9678 17.3447 22.1455 17.3002 22.3233 17.3002C22.5011 17.3002 22.6344 17.3891 22.7233 17.5669C22.8122 17.7447 22.8122 17.9225 22.7233 18.1002L20.0567 30.7669C20.0567 31.1225 19.8789 31.3002 19.5233 31.3002ZM36.59 38.1002H5.38999C4.23443 38.1002 3.21221 37.678 2.32332 36.8336C1.43443 35.9891 0.98999 34.9447 0.98999 33.7002V7.30024C0.98999 6.0558 1.43443 5.01135 2.32332 4.16691C3.21221 3.32246 4.23443 2.90024 5.38999 2.90024H36.59C37.7455 2.90024 38.7678 3.32246 39.6567 4.16691C40.5455 5.01135 40.99 6.0558 40.99 7.30024V33.7002C40.99 34.9447 40.5455 35.9891 39.6567 36.8336C38.7678 37.678 37.7455 38.1002 36.59 38.1002ZM5.38999 4.23357C4.58999 4.23357 3.87888 4.52246 3.25666 5.10024C2.63443 5.67802 2.32332 6.41135 2.32332 7.30024V33.7002C2.32332 34.5891 2.63443 35.3225 3.25666 35.9002C3.87888 36.478 4.58999 36.7669 5.38999 36.7669H36.59C37.39 36.7669 38.1011 36.478 38.7233 35.9002C39.3455 35.3225 39.6567 34.5891 39.6567 33.7002V7.30024C39.6567 6.41135 39.3455 5.67802 38.7233 5.10024C38.1011 4.52246 37.39 4.23357 36.59 4.23357H5.38999ZM40.3233 13.4336H1.65666C1.47888 13.4336 1.32332 13.3669 1.18999 13.2336C1.05666 13.1002 0.98999 12.9447 0.98999 12.7669C0.98999 12.5891 1.05666 12.4336 1.18999 12.3002C1.32332 12.1669 1.47888 12.1002 1.65666 12.1002H40.3233C40.5011 12.1002 40.6567 12.1669 40.79 12.3002C40.9233 12.4336 40.99 12.5891 40.99 12.7669C40.99 12.9447 40.9233 13.1002 40.79 13.2336C40.6567 13.3669 40.5011 13.4336 40.3233 13.4336ZM12.3233 10.2336C11.7011 10.2336 11.19 10.0336 10.79 9.63357C10.39 9.23357 10.19 8.74469 10.19 8.16691C10.19 7.58913 10.39 7.10024 10.79 6.70024C11.19 6.30024 11.6789 6.10024 12.2567 6.10024C12.8344 6.10024 13.3233 6.30024 13.7233 6.70024C14.1233 7.10024 14.3233 7.58913 14.3233 8.16691C14.3233 8.74469 14.1233 9.23357 13.7233 9.63357C13.3233 10.0336 12.8567 10.2336 12.3233 10.2336ZM12.3233 7.43357C12.0567 7.43357 11.8567 7.50024 11.7233 7.63357C11.59 7.76691 11.5233 7.94468 11.5233 8.16691C11.5233 8.38913 11.59 8.56691 11.7233 8.70024C11.8567 8.83357 12.0344 8.90024 12.2567 8.90024C12.4789 8.90024 12.6567 8.83357 12.79 8.70024C12.9233 8.56691 12.99 8.38913 12.99 8.16691C12.99 7.94468 12.9233 7.76691 12.79 7.63357C12.6567 7.50024 12.5011 7.43357 12.3233 7.43357ZM5.78999 10.2336C5.25666 10.2336 4.78999 10.0336 4.38999 9.63357C3.98999 9.23357 3.78999 8.74469 3.78999 8.16691C3.78999 7.58913 3.98999 7.10024 4.38999 6.70024C4.78999 6.30024 5.27888 6.10024 5.85666 6.10024C6.43443 6.10024 6.92332 6.30024 7.32332 6.70024C7.72332 7.10024 7.92332 7.58913 7.92332 8.16691C7.92332 8.74469 7.72332 9.23357 7.32332 9.63357C6.92332 10.0336 6.41221 10.2336 5.78999 10.2336ZM5.78999 7.43357C5.61221 7.43357 5.45666 7.50024 5.32332 7.63357C5.18999 7.76691 5.12332 7.94468 5.12332 8.16691C5.12332 8.38913 5.18999 8.56691 5.32332 8.70024C5.45666 8.83357 5.63443 8.90024 5.85666 8.90024C6.07888 8.90024 6.25666 8.83357 6.38999 8.70024C6.52332 8.56691 6.58999 8.38913 6.58999 8.16691C6.58999 7.94468 6.52332 7.76691 6.38999 7.63357C6.25666 7.50024 6.05666 7.43357 5.78999 7.43357ZM18.7233 10.2336C18.1011 10.2336 17.59 10.0336 17.19 9.63357C16.79 9.23357 16.59 8.74469 16.59 8.16691C16.59 7.58913 16.79 7.10024 17.19 6.70024C17.59 6.30024 18.0789 6.10024 18.6567 6.10024C19.2344 6.10024 19.7233 6.30024 20.1233 6.70024C20.5233 7.10024 20.7233 7.58913 20.7233 8.16691C20.7233 8.74469 20.5233 9.23357 20.1233 9.63357C19.7233 10.0336 19.2567 10.2336 18.7233 10.2336ZM18.7233 7.43357C18.4567 7.43357 18.2567 7.50024 18.1233 7.63357C17.99 7.76691 17.9233 7.94468 17.9233 8.16691C17.9233 8.38913 17.99 8.58913 18.1233 8.76691C18.2567 8.94468 18.4344 9.03358 18.6567 9.03358C18.8789 9.03358 19.0789 8.94468 19.2567 8.76691C19.4344 8.58913 19.5233 8.38913 19.5233 8.16691C19.5233 7.94468 19.4344 7.76691 19.2567 7.63357C19.0789 7.50024 18.9011 7.43357 18.7233 7.43357Z" fill="#1E1E1E"/>
</g>
<defs>
<clipPath id="clip0_0_93">
<rect width="40.02" height="40" fill="white" transform="matrix(1 0 0 -1 0.97998 40.5002)"/>
</clipPath>
</defs>
</svg>
