<svg width="106" height="106" viewBox="0 0 106 106" fill="none" xmlns="http://www.w3.org/2000/svg">
<g id="Frame" opacity="0.3" clip-path="url(#clip0_0_347)">
<g id="Group">
<g id="Group_2">
<g id="Group_3">
<path id="Vector" d="M42.7587 54.1582C42.7587 54.1582 73.5321 36.1087 79.3865 32.8042C85.2409 29.4998 86.5462 34.7174 86.5462 34.7174L48.1021 56.9333L42.7587 54.1582Z" fill="white"/>
<path id="Vector_2" d="M42.8706 69.4748C42.1649 66.5879 40.2855 64.2969 37.8729 62.9476L48.1169 56.9522L42.7735 54.1771L28.7307 62.4555C24.1347 64.4255 21.4973 69.4779 22.7399 74.5012C24.1262 80.0512 29.7546 83.4543 35.3035 82.0702C40.8563 80.6524 44.2569 75.0248 42.8706 69.4748ZM27.3816 73.3186C26.6202 70.3232 28.4669 67.2712 31.4578 66.5446C34.4526 65.7843 37.5051 67.6324 38.2329 70.6239C38.9942 73.6193 37.1476 76.6713 34.1566 77.398C31.1469 78.1395 28.1093 76.3101 27.3816 73.3186Z" fill="white"/>
<path id="Vector_3" d="M49.3154 54.6587C48.7217 54.7943 48.1149 54.4523 47.979 53.8586C47.8431 53.2648 48.1848 52.658 48.7785 52.5223C49.3722 52.3867 49.9791 52.7287 50.1149 53.3225C50.2844 53.9201 49.9278 54.5082 49.3154 54.6587Z" fill="white"/>
</g>
<g id="Group_4">
<path id="Vector_4" d="M42.5353 52.9932C42.5353 52.9932 73.1798 71.3173 79.0025 74.6578C84.8252 77.9983 86.1685 72.8138 86.1685 72.8138L47.9176 50.2465L42.5353 52.9932Z" fill="white"/>
<path id="Vector_5" d="M35.3213 25.0408C29.7715 23.6192 24.0997 26.9617 22.6805 32.5115C21.3938 37.4985 24.0054 42.5945 28.5869 44.6017L42.5689 52.9972L47.9324 50.2654L37.7325 44.176C40.1474 42.8389 42.0397 40.5743 42.7963 37.6858C44.1969 32.1508 40.8525 26.4773 35.3213 25.0408ZM34.1255 29.6812C37.1147 30.4507 38.9055 33.5137 38.1372 36.5029C37.369 39.4921 34.307 41.2818 31.3178 40.5123C28.3285 39.7428 26.5191 36.6946 27.306 33.6906C28.0891 30.7201 31.1362 28.9117 34.1255 29.6812Z" fill="white"/>
<path id="Vector_6" d="M49.1142 52.561C48.5365 52.4094 47.9158 52.78 47.7645 53.3577C47.6132 53.9354 47.984 54.5562 48.5617 54.7078C49.1394 54.8594 49.76 54.4888 49.9114 53.9111C50.0814 53.3186 49.7106 52.6977 49.1142 52.561Z" fill="white"/>
</g>
</g>
</g>
</g>
<defs>
<clipPath id="clip0_0_347">
<rect width="74" height="76" fill="white" transform="translate(59.7617 0.39502) rotate(51.5606)"/>
</clipPath>
</defs>
</svg>
