<svg width="97" height="89" viewBox="0 0 97 89" fill="none" xmlns="http://www.w3.org/2000/svg">
<g id="Frame" opacity="0.3" clip-path="url(#clip0_0_318)">
<g id="Group">
<g id="Group_2">
<path id="Vector" d="M43.5374 23.665L76.121 70.3282L81.4428 67.2542L46.8022 21.3555" fill="white"/>
<path id="Vector_2" d="M41.0887 13.7761L36.2077 7.3028L33.5305 9.33587L38.1667 15.9718" fill="white"/>
<path id="Vector_3" d="M35.8159 8.57146L29.2208 0L34.6242 9.27083L35.8159 8.57146Z" fill="white"/>
<path id="Vector_4" d="M25.3682 44.2235L75.9251 70.5397L73.5254 76.1835L23.4746 47.7367" fill="white"/>
<path id="Vector_5" d="M15.2144 43.0362L8.14587 39.0188L9.84362 36.1237L17.0264 39.8808" fill="white"/>
<path id="Vector_6" d="M91.2374 80.4936L88.1521 83.9905L93.5229 88.7072C94.0289 89.1464 94.7798 89.0976 95.2206 88.5934L96.7061 86.9181C97.1469 86.4139 97.0979 85.6657 96.5918 85.2266L91.2374 80.4936Z" fill="white"/>
<path id="Vector_7" d="M9.37024 38.4821L0 33.0334L9.90895 37.2135L9.37024 38.4821Z" fill="white"/>
<path id="Vector_8" d="M73.8682 68.3602C78.2922 63.3507 85.981 62.879 90.9926 67.2867C96.0205 71.6944 96.494 79.3551 92.07 84.3483C87.6461 89.3578 79.9573 89.8295 74.9456 85.4218C69.934 81.0141 69.4443 73.3534 73.8682 68.3602ZM87.5808 80.396C89.8172 77.8587 89.5724 73.9877 87.0421 71.7595C84.4955 69.5312 80.6102 69.7752 78.3738 72.3125C76.1373 74.8498 76.3822 78.7207 78.9288 80.949C81.4591 83.1773 85.3443 82.9333 87.5808 80.396Z" fill="white"/>
</g>
<path id="Vector_9" d="M37.987 14.6544C40.1908 12.166 44.0271 11.922 46.541 14.1177C49.0387 16.3134 49.2835 20.1356 47.0797 22.6241C44.8759 25.1126 41.0397 25.3566 38.5257 23.1608C36.0281 20.9651 35.7832 17.1429 37.987 14.6544ZM45.5779 21.3067C47.0634 19.6314 46.9002 17.0779 45.2187 15.5978C43.5373 14.1177 40.9744 14.2804 39.4888 15.9556C38.0033 17.6309 38.1666 20.1844 39.848 21.6645C41.5294 23.1446 44.0923 22.9819 45.5779 21.3067Z" fill="white"/>
<path id="Vector_10" d="M15.6878 39.8646C17.8916 37.3761 21.7279 37.1321 24.2418 39.3279C26.7395 41.5236 26.9844 45.3458 24.7806 47.8505C22.5767 50.339 18.7405 50.583 16.2429 48.3872C13.7289 46.1753 13.484 42.3531 15.6878 39.8646ZM23.2787 46.5168C24.7642 44.8416 24.601 42.288 22.9196 40.8079C21.2381 39.3279 18.6752 39.4905 17.1897 41.1658C15.7041 42.841 15.8674 45.3946 17.5488 46.8746C19.2302 48.3547 21.7932 48.1921 23.2787 46.5168Z" fill="white"/>
<path id="Vector_11" d="M58.262 54.763C58.5885 54.6329 58.9803 54.6979 59.2742 54.9582L66.1141 60.9598C66.5222 61.3176 66.5712 61.952 66.2121 62.3586C65.8366 62.7815 65.2163 62.814 64.8082 62.4399L57.9519 56.4383C57.5438 56.0804 57.4948 55.4461 57.8539 55.0395C57.9682 54.9094 58.1151 54.8118 58.262 54.763Z" fill="white"/>
<path id="Vector_12" d="M73.6234 44.256C73.9499 44.1259 74.3416 44.191 74.6355 44.4512C75.0436 44.809 75.0926 45.4434 74.7171 45.85L51.0466 72.6215C50.6875 73.0282 50.0508 73.0769 49.6427 72.7029C49.2346 72.345 49.1856 71.7107 49.5611 71.3041L73.2479 44.5325C73.3458 44.4024 73.4764 44.3048 73.6234 44.256Z" fill="white"/>
</g>
</g>
<defs>
<clipPath id="clip0_0_318">
<rect width="97" height="89" fill="white"/>
</clipPath>
</defs>
</svg>
