<svg width="86" height="86" viewBox="0 0 86 86" fill="none" xmlns="http://www.w3.org/2000/svg">
<g id="Frame" opacity="0.3">
<g id="Group">
<path id="Vector" d="M3.14767 63.212L62.7997 3.18372C64.2376 1.73656 66.5887 1.71726 68.046 3.14513L82.7939 17.5975C84.2512 19.0253 84.2706 21.3601 82.8327 22.8072L23.1807 82.8355C21.7428 84.2827 19.3917 84.302 17.9344 82.8741L3.18653 68.4218C1.72923 66.9746 1.7098 64.6591 3.14767 63.212Z" stroke="white" stroke-width="2.1481" stroke-miterlimit="10"/>
<path id="Vector_2" d="M56.8928 9.37756L63.8879 16.3432" stroke="white" stroke-width="2.1481" stroke-miterlimit="10"/>
<path id="Vector_3" d="M48.9263 17.3466L55.9407 24.2929" stroke="white" stroke-width="2.1481" stroke-miterlimit="10"/>
<path id="Vector_4" d="M40.979 25.3157L47.9935 32.262" stroke="white" stroke-width="2.1481" stroke-miterlimit="10"/>
<path id="Vector_5" d="M33.032 33.2654L40.027 40.2311" stroke="white" stroke-width="2.1481" stroke-miterlimit="10"/>
<path id="Vector_6" d="M25.0654 41.2344L32.0799 48.2" stroke="white" stroke-width="2.1481" stroke-miterlimit="10"/>
<path id="Vector_7" d="M17.1184 49.2035L24.1134 56.1499" stroke="white" stroke-width="2.1481" stroke-miterlimit="10"/>
<path id="Vector_8" d="M9.15161 57.1532L16.1661 64.1189" stroke="white" stroke-width="2.1481" stroke-miterlimit="10"/>
</g>
</g>
</svg>
