<svg width="58" height="60" viewBox="0 0 58 60" fill="none" xmlns="http://www.w3.org/2000/svg">
<g id="Frame" opacity="0.3">
<g id="Group">
<path id="Vector" d="M20.9461 54.7866L18.9101 40.1337C18.8175 39.4242 18.3548 38.8072 17.707 38.4679L4.47307 31.8355C2.89981 31.0026 2.89981 28.6889 4.56562 27.8869L17.8921 21.4396C18.5091 21.1311 18.9718 20.5141 19.0643 19.8046L21.2854 5.18252C21.5939 3.39332 23.815 2.68381 25.0489 3.97944L35.2906 14.653C35.7841 15.1774 36.5245 15.4242 37.234 15.3008L51.8253 12.8946C53.6145 12.5861 54.9718 14.4987 54.108 16.1028L47.1363 29.1517C46.797 29.7995 46.797 30.5398 47.1363 31.1877L53.9229 44.3291C54.7558 45.9332 53.3677 47.8149 51.5785 47.5064L37.0181 44.9152C36.3085 44.7918 35.5682 45.0077 35.0746 45.5321L24.6787 56.0514C23.4139 57.3162 21.1929 56.6067 20.9461 54.7866Z" stroke="white" stroke-width="2.1481" stroke-miterlimit="10"/>
</g>
</g>
</svg>
