<svg width="104" height="87" viewBox="0 0 104 87" fill="none" xmlns="http://www.w3.org/2000/svg">
<g id="Frame" opacity="0.3" clip-path="url(#clip0_0_358)">
<g id="Group">
<path id="Vector" d="M100.87 34.8949L33.6397 0.638017C30.805 -0.801622 27.3313 0.310826 25.8893 3.14103L7.53734 39.0175C6.0954 41.8477 7.20962 45.3159 10.0443 46.7555L77.2748 81.0288C80.1096 82.4684 83.5833 81.356 85.0253 78.5258L103.377 42.6493C104.819 39.8027 103.689 36.3345 100.87 34.8949ZM101.018 41.406L82.6494 77.3315C81.7154 79.1474 79.5033 79.8672 77.6845 78.9347L11.5027 45.185C9.68386 44.2525 8.96289 42.044 9.89688 40.2281L28.2652 4.31891C29.1828 2.503 31.4113 1.78318 33.2301 2.71568L99.4283 36.449C101.231 37.3815 101.952 39.6064 101.018 41.406Z" fill="white"/>
<path id="Vector_2" d="M88.3086 83.2356L1.92236 39.2061L0.000113596 42.9655L86.3864 86.995L88.3086 83.2356Z" fill="white"/>
<path id="Vector_3" d="M75.9149 76.857L67.1322 72.3745L68.017 70.624L76.7998 75.1065C77.2749 75.3519 77.4716 75.9409 77.2258 76.4317C76.9964 76.9224 76.3901 77.1024 75.9149 76.857Z" fill="white"/>
</g>
</g>
<defs>
<clipPath id="clip0_0_358">
<rect width="104" height="87" fill="white"/>
</clipPath>
</defs>
</svg>
