<svg width="128" height="92" viewBox="0 0 128 92" fill="none" xmlns="http://www.w3.org/2000/svg">
<g id="Frame" clip-path="url(#clip0_0_338)">
<g id="Group">
<g id="Group_2">
<path id="Vector" d="M93.015 85.3004C118.371 78.1199 125.85 60.7136 125.529 44.237C125.208 27.7603 113.492 14.9701 103.446 10.5143C93.4002 6.09065 76.9348 3.52619 55.9117 11.6363C47.1494 15.0021 39.0291 16.6049 31.7753 8.11016C24.5536 -0.384612 11.2979 1.47462 7.25375 8.52689C-3.27383 27.0551 4.75024 54.4948 19.1936 70.0098C39.6068 91.968 66.5677 92.7694 93.015 85.3004ZM39.4142 33.8189C22.9167 32.4084 25.998 20.067 35.1775 20.9004C44.3571 21.7339 46.5396 21.9262 53.4082 21.0286C65.5085 19.4258 61.336 35.7102 39.4142 33.8189Z" stroke="white" stroke-opacity="0.3" stroke-width="3" stroke-miterlimit="10" stroke-linecap="round"/>
<path id="Vector_2" d="M102.644 29.1067C97.9899 30.453 92.4372 28.4976 90.2547 24.683C88.0721 20.8683 90.0942 16.7011 94.7481 15.3227C99.4021 13.9443 104.955 15.9317 107.137 19.7143C109.32 23.529 107.298 27.7283 102.644 29.1067Z" stroke="white" stroke-opacity="0.3" stroke-width="3" stroke-miterlimit="10"/>
<path id="Vector_3" d="M109.673 51.0007C105.019 52.3791 99.4665 50.3917 97.284 46.6091C95.1014 42.7945 97.1235 38.6272 101.777 37.2488C106.431 35.8704 111.984 37.8579 114.167 41.6405C116.349 45.423 114.327 49.6224 109.673 51.0007Z" stroke="white" stroke-opacity="0.3" stroke-width="3" stroke-miterlimit="10"/>
<path id="Vector_4" d="M97.7652 70.8753C93.1112 72.2537 87.5585 70.2662 85.376 66.4836C83.1934 62.669 85.2155 58.5017 89.8695 57.1233C94.5234 55.7449 100.076 57.7324 102.259 61.515C104.441 65.3296 102.419 69.4969 97.7652 70.8753Z" stroke="white" stroke-opacity="0.3" stroke-width="3" stroke-miterlimit="10"/>
<path id="Vector_5" d="M68.333 78.0879C63.6791 79.4663 58.1264 77.4788 55.9439 73.6963C53.7613 69.8816 55.7834 65.7144 60.4373 64.336C65.0913 62.9576 70.644 64.9451 72.8265 68.7276C75.0091 72.5102 72.987 76.7095 68.333 78.0879Z" stroke="white" stroke-opacity="0.3" stroke-width="3" stroke-miterlimit="10"/>
<path id="Vector_6" d="M42.1104 67.4453C37.4564 68.8237 31.9038 66.8363 29.7212 63.0537C27.5387 59.2391 29.5607 55.0718 34.2147 53.6934C38.8686 52.315 44.4213 54.3025 46.6039 58.0851C48.7864 61.8997 46.7643 66.0669 42.1104 67.4453Z" stroke="white" stroke-opacity="0.3" stroke-width="3" stroke-miterlimit="10"/>
</g>
</g>
</g>
<defs>
<clipPath id="clip0_0_338">
<rect width="128" height="92" fill="white"/>
</clipPath>
</defs>
</svg>
