<svg width="228" height="52" viewBox="0 0 228 52" fill="none" xmlns="http://www.w3.org/2000/svg">
<g id="Group">
<path id="Vector" d="M39.1728 8.78173C30.4541 8.15547 20.7426 8.15549 12.0238 8.78173C10.1986 8.91283 8.81576 10.3103 8.67854 12.0186C8.23844 17.4967 8.17989 25.7041 8.58344 31.1767C8.71673 32.9844 10.3038 34.536 12.4509 34.536H19.1816V42.839L12.4646 42.8342C6.30263 42.8342 0.771665 38.2669 0.293895 31.788C-0.141067 25.8896 -0.080991 17.2553 0.393174 11.3529C0.868376 5.43768 5.62498 0.907892 11.4283 0.491053C20.5436 -0.163683 30.6531 -0.163686 39.7684 0.491052C45.5717 0.907888 50.3284 5.43768 50.8036 11.3529C51.2777 17.2553 51.2569 25.8896 50.822 31.788C50.3442 38.2669 44.826 42.8528 38.6641 42.8528L32.0165 42.848L19.1816 51.151V42.839L32.0165 34.536H38.6651C40.8121 34.536 42.3991 32.9844 42.5324 31.1767C42.936 25.7041 42.9582 17.4967 42.5181 12.0186C42.3809 10.3103 40.9981 8.91283 39.1728 8.78173Z" fill="#FE5000"/>
<path id="Vector_2" d="M63.8733 36.4952H83.9603V31.4517H69.9603V6.06042H63.8733V36.4952Z" fill="#8E86BF"/>
<path id="Vector_3" d="M86.8724 36.4957H92.7855V13.8869H86.8724V36.4957ZM86.3942 7.97385C86.3942 9.93038 87.829 11.4086 89.829 11.4086C91.829 11.4086 93.2638 9.93038 93.2638 7.97385C93.2638 6.01733 91.829 4.53906 89.829 4.53906C87.829 4.53906 86.3942 6.01733 86.3942 7.97385Z" fill="#8E86BF"/>
<path id="Vector_4" d="M115.971 13.8867H110.058L105.188 30.4519L100.319 13.8867H94.4056L102.101 36.4954H108.275L115.971 13.8867Z" fill="#8E86BF"/>
<path id="Vector_5" d="M126.522 37.0169C131.522 37.0169 135.566 34.0169 136.348 29.8864H131.174C130.609 31.4517 129.044 32.756 126.522 32.756C123.087 32.756 121.739 30.4517 121.739 27.7995V27.2343H136.522V23.2777C136.522 17.8429 133.131 13.3646 126.435 13.3646C119.652 13.3646 116 17.7125 116 23.8429V26.9299C116 33.2778 120.131 37.0169 126.522 37.0169ZM121.739 22.8429C121.739 19.7995 123.044 17.5386 126.435 17.5386C129.609 17.5386 131.087 19.669 131.087 22.4951V23.0603H121.739V22.8429Z" fill="#8E86BF"/>
<path id="Vector_6" d="M152.237 37.104C159.933 37.104 164.672 31.8866 164.977 25.6692H159.324C158.933 29.104 156.759 32.104 152.237 32.104C147.151 32.104 144.977 28.6257 144.977 23.7562V18.7996C144.977 13.9301 147.151 10.4518 152.237 10.4518C156.759 10.4518 158.933 13.4518 159.324 16.8866H164.977C164.672 10.6692 159.933 5.45178 152.237 5.45178C143.064 5.45178 138.933 11.3214 138.933 19.104V23.4518C138.933 31.2345 143.064 37.104 152.237 37.104Z" fill="#8E86BF"/>
<path id="Vector_7" d="M168.19 36.4955H174.104V23.1042C174.104 20.0607 175.799 18.4955 178.452 18.4955C181.321 18.4955 182.581 20.3651 182.581 22.9738V36.4955H188.494V22.0172C188.494 16.6693 185.408 13.3649 180.494 13.3649C177.582 13.3649 175.277 14.6258 174.104 16.5823V4.75623H168.19V36.4955Z" fill="#8E86BF"/>
<path id="Vector_8" d="M199.782 37.0169C202.391 37.0169 205.26 35.9299 206.304 34.4082V36.4952H211.999V22.0603C211.999 16.7994 208.13 13.3646 202.478 13.3646C197.608 13.3646 194.086 15.7125 192.781 20.1038H198.26C198.868 18.8864 200.13 17.9734 202.173 17.9734C204.607 17.9734 206.086 19.5386 206.086 21.6256V24.7125C205.042 23.843 203.042 22.7995 200.347 22.7995C194.913 22.7995 191.216 25.0603 191.216 29.9734C191.216 34.3647 194.694 37.0169 199.782 37.0169ZM201.303 33.1038C198.826 33.1038 196.955 31.8865 196.955 29.7995C196.955 27.7125 198.694 26.5821 201.477 26.5821C204.13 26.5821 206.086 27.756 206.086 29.756C206.086 31.6691 203.912 33.1038 201.303 33.1038Z" fill="#8E86BF"/>
<path id="Vector_9" d="M223.049 36.4951H227.136V31.7125H224.744C223.179 31.7125 222.614 31.1038 222.614 29.6256V18.669H227.44V13.8865H222.614V7.71252H216.657V13.8865H213.439V18.669H216.657V30.0603C216.657 34.0604 218.701 36.4951 223.049 36.4951Z" fill="#8E86BF"/>
</g>
</svg>
