<svg width="170" height="52" viewBox="0 0 170 52" fill="none" xmlns="http://www.w3.org/2000/svg">
<g id="Group 512823">
<path id="Vector" d="M51.1681 22.8986H35.5807L49.0794 15.1066L46.4025 10.4689L32.9021 18.2609L40.6941 4.76557L36.0564 2.08867L28.2627 15.5806V0H22.9054V15.5823L15.1117 2.08867L10.4723 4.76557L18.2643 18.2575L4.76728 10.4689L2.08867 15.1066L15.5874 22.8986H0V28.2541H15.5857L2.08867 36.0461L4.76557 40.6838L18.266 32.8918L10.4723 46.3872L15.11 49.0641L22.9054 35.5704V51.151H28.2627V35.2363L36.1996 48.9788L40.5491 46.469L32.6105 32.723L46.3991 40.6821L49.0777 36.0444L35.5807 28.2524H51.1664V22.8986H51.1681ZM25.584 32.856C24.6277 32.8562 23.6807 32.668 22.7972 32.3021C21.9136 31.9362 21.1107 31.3999 20.4345 30.7237C19.7583 30.0477 19.2217 29.2449 18.8556 28.3614C18.4896 27.4778 18.3012 26.531 18.301 25.5747C18.3008 24.6183 18.4891 23.6713 18.855 22.7878C19.2209 21.9042 19.7571 21.1013 20.4333 20.4251C21.1094 19.7489 21.9121 19.2123 22.7956 18.8463C23.6792 18.4802 24.626 18.2918 25.5823 18.2916C27.5136 18.2914 29.366 19.0584 30.7319 20.4239C32.0978 21.7895 32.8652 23.6417 32.8654 25.573C32.8656 27.5043 32.0986 29.3566 30.7331 30.7225C29.3675 32.0884 27.5153 32.8559 25.584 32.856Z" fill="#5753F3"/>
<path id="Vector_2" d="M64.9769 44.285V6.86633H71.8448V44.285H64.9769ZM130.848 18.8561H137.405V21.9593C138.8 19.4785 142.055 18.1332 144.842 18.1332C148.304 18.1332 151.091 19.6336 152.382 22.3702C154.394 19.2671 157.081 18.1332 160.438 18.1332C165.138 18.1332 169.629 20.9755 169.629 27.7973V44.285H162.969V29.1938C162.969 26.4538 161.625 24.3856 158.474 24.3856C155.53 24.3856 153.773 26.6618 153.773 29.4018V44.2867H146.96V29.1938C146.96 26.4538 145.565 24.3856 142.466 24.3856C139.47 24.3856 137.714 26.6106 137.714 29.4018V44.2867H130.848V18.8561ZM87.3657 45.0216C79.6283 45.0216 74.0256 39.2808 74.0256 31.5706C74.0256 23.9832 79.6112 18.1076 87.3657 18.1076C95.1578 18.1076 100.706 24.0377 100.706 31.5706C100.706 39.2262 95.0998 45.0216 87.3657 45.0216ZM87.3657 24.331C85.4466 24.3337 83.6068 25.0976 82.2501 26.4553C80.8936 27.8129 80.1309 29.6531 80.1296 31.5723C80.1309 33.4915 80.8936 35.3317 82.2501 36.6893C83.6068 38.047 85.4466 38.8108 87.3657 38.8136C89.2846 38.8103 91.124 38.0463 92.4802 36.6888C93.8363 35.3312 94.5988 33.4911 94.6002 31.5723C94.5988 29.6534 93.8363 27.8134 92.4802 26.4558C91.124 25.0983 89.2846 24.3342 87.3657 24.331ZM115.374 45.0216C107.637 45.0216 102.034 39.2808 102.034 31.5706C102.034 23.9832 107.62 18.1076 115.374 18.1076C123.166 18.1076 128.715 24.0377 128.715 31.5706C128.715 39.2262 123.105 45.0216 115.374 45.0216ZM115.374 24.244C113.433 24.2473 111.572 25.0202 110.2 26.3932C108.828 27.7663 108.056 29.6277 108.055 31.5689C108.056 33.5101 108.828 35.3714 110.2 36.7445C111.572 38.1176 113.433 38.8905 115.374 38.8937C117.316 38.8905 119.176 38.1176 120.548 36.7445C121.921 35.3714 122.692 33.5101 122.694 31.5689C122.692 29.6277 121.921 27.7663 120.548 26.3932C119.176 25.0202 117.316 24.2473 115.374 24.244Z" fill="#8E86BF"/>
</g>
</svg>
